<?xml version="1.0" encoding="UTF-8" standalone="no"?>
<svg width="342px" height="48px" viewBox="0 0 342 48" version="1.1" xmlns="http://www.w3.org/2000/svg" xmlns:xlink="http://www.w3.org/1999/xlink" xmlns:sketch="http://www.bohemiancoding.com/sketch/ns">
    <!-- Generator: Sketch 3.3.2 (12043) - http://www.bohemiancoding.com/sketch -->
    <title>Logo + › blog</title>
    <desc>Created with Sketch.</desc>
    <defs>
        <path id="path-1" d="M0,0.680402395 L214.865989,0.680402395 L214.865989,46.7062662 L0,46.7062662"></path>
    </defs>
    <g id="Page-1" stroke="none" stroke-width="1" fill="none" fill-rule="evenodd" sketch:type="MSPage">
        <g id="Full-view-Copy" sketch:type="MSArtboardGroup" transform="translate(-244.000000, -62.000000)">
            <g id="Logo-+-›-blog" sketch:type="MSLayerGroup" transform="translate(244.000000, 62.000000)">
                <g id="Logo">
                    <mask id="mask-2" sketch:name="Clip 2" fill="white">
                        <use xlink:href="#path-1"></use>
                    </mask>
                    <g id="Clip-2"></g>
                    <path d="M0.957886179,46.718459 C0.33648374,44.9131047 0,42.9678113 0,40.9166629 C0,29.450239 9.2053794,21.5280177 20.9677439,21.5280177 C24.0363008,21.5280177 27.1048577,22.2230029 29.7346748,23.6129732 L29.7346748,34.314858 C27.7620935,32.9248877 25.424187,31.8131331 22.8674932,31.8131331 C17.7532317,31.8131331 13.7349458,35.5657205 13.7349458,40.4996164 C13.7349458,43.0229557 14.6674864,45.1785736 16.2645461,46.7192903 L0.957886179,46.718459" id="Fill-1" fill="#F4B528" sketch:type="MSShapeGroup" mask="url(#mask-2)"></path>
                    <path d="M37.9903252,46.7190132 L37.9903252,0.680402395 L51.2871138,0.680402395 L51.2871138,46.718459 L37.9903252,46.7190132" id="Fill-3" fill="#F4B528" sketch:type="MSShapeGroup" mask="url(#mask-2)"></path>
                    <path d="M85.4170528,46.7198445 C87.2095935,45.2711274 88.1811721,43.0811482 88.1811721,40.5691703 C88.1811721,36.1911517 85.0397832,32.5078412 79.6333198,32.5078412 C74.2271477,32.5078412 71.0854675,36.1911517 71.0854675,40.5691703 C71.0854675,43.0778229 72.0547154,45.265031 73.8495867,46.7206758 L58.3593902,46.718459 C57.6986585,44.7496114 57.3505217,42.6555114 57.3505217,40.4996164 C57.3505217,30.284332 65.021477,21.5280177 76.1266057,21.5280177 C80.4368022,21.5280177 84.9666599,23.0568188 87.7430149,26.184252 L87.7430149,22.7096033 L101.039512,22.7096033 L101.039512,46.718459 L85.4170528,46.7198445" id="Fill-4" fill="#F4B528" sketch:type="MSShapeGroup" mask="url(#mask-2)"></path>
                    <path d="M109.880149,46.7209529 L109.880149,22.7096033 L123.176938,22.7096033 L123.176938,28.5468691 L123.322893,28.5468691 C125.879878,24.1688505 130.263489,22.2230029 135.450874,22.2230029 L138.007859,22.2230029 L138.007859,34.3841349 C136.181524,33.4114882 134.428022,33.2028263 132.382317,33.2028263 C125.003564,33.2028263 123.176938,37.8590607 123.176938,43.9742651 L123.176938,46.7209529 L109.880149,46.7209529" id="Fill-5" fill="#F4B528" sketch:type="MSShapeGroup" mask="url(#mask-2)"></path>
                    <path d="M168.342378,46.7228927 C170.13958,45.2653082 171.103293,43.0778229 171.103293,40.5691703 C171.103293,36.1911517 167.961612,32.5078412 162.555149,32.5078412 C157.148686,32.5078412 154.007297,36.1911517 154.007297,40.5691703 C154.007297,43.0778229 154.976253,45.265031 156.764424,46.7226156 L141.274519,46.7206758 C140.620488,44.7496114 140.272351,42.6555114 140.272351,40.4996164 C140.272351,30.284332 147.943598,21.5280177 159.048435,21.5280177 C163.358923,21.5280177 167.88878,23.0568188 170.664844,26.184252 L170.664844,22.7096033 L183.961341,22.7096033 L183.964837,46.7209529 L168.342378,46.7228927" id="Fill-6" fill="#F4B528" sketch:type="MSShapeGroup" mask="url(#mask-2)"></path>
                    <path d="M194.044201,46.7209529 L194.044201,33.1332724 L189.733713,33.1332724 L189.733713,22.7096033 L194.044201,22.7096033 L194.044201,12.0077185 L207.340698,12.0077185 L207.340698,22.7096033 L214.865989,22.7096033 L214.865989,33.1332724 L207.340698,33.1332724 L207.340698,46.7209529 L194.044201,46.7209529" id="Fill-7" fill="#F4B528" sketch:type="MSShapeGroup" mask="url(#mask-2)"></path>
                </g>
                <path d="M228.671875,47 L228.671875,12.875 L240.390625,12.875 C244.625021,12.875 247.929676,13.6601484 250.304688,15.2304688 C252.679699,16.8007891 253.867188,19.1406095 253.867188,22.25 C253.867188,23.8750081 253.484379,25.3203062 252.71875,26.5859375 C251.953121,27.8515688 250.773445,28.8046843 249.179688,29.4453125 C251.179698,29.8984398 252.656245,30.8085869 253.609375,32.1757812 C254.562505,33.5429756 255.039062,35.1171786 255.039062,36.8984375 C255.039062,40.2265791 253.921886,42.742179 251.6875,44.4453125 C249.453114,46.148446 246.250021,47 242.078125,47 L228.671875,47 Z M236.617188,32.3515625 L236.617188,40.90625 L242.078125,40.90625 C243.765633,40.90625 245.031246,40.5742221 245.875,39.9101562 C246.718754,39.2460904 247.140625,38.2265694 247.140625,36.8515625 C247.140625,35.3671801 246.777347,34.2460975 246.050781,33.4882812 C245.324215,32.730465 244.148446,32.3515625 242.523438,32.3515625 L236.617188,32.3515625 Z M236.617188,27.1015625 L240.554688,27.1015625 C242.351571,27.0703123 243.695308,26.7226596 244.585938,26.0585938 C245.476567,25.3945279 245.921875,24.4218814 245.921875,23.140625 C245.921875,21.6874927 245.468755,20.6289096 244.5625,19.9648438 C243.656245,19.3007779 242.265634,18.96875 240.390625,18.96875 L236.617188,18.96875 L236.617188,27.1015625 Z M266.4375,40.90625 L281.132812,40.90625 L281.132812,47 L258.492188,47 L258.492188,12.875 L266.4375,12.875 L266.4375,40.90625 Z M311.117188,33.0078125 C311.117188,37.2109585 309.78517,40.6757676 307.121094,43.4023438 C304.457018,46.1289199 300.976584,47.4921875 296.679688,47.4921875 C292.351541,47.4921875 288.843763,46.1289199 286.15625,43.4023438 C283.468737,40.6757676 282.125,37.2109585 282.125,33.0078125 L282.125,26.8671875 C282.125,22.6796666 283.46483,19.2187637 286.144531,16.484375 C288.824232,13.7499863 292.320291,12.3828125 296.632812,12.3828125 C300.914084,12.3828125 304.398424,13.7499863 307.085938,16.484375 C309.773451,19.2187637 311.117188,22.6796666 311.117188,26.8671875 L311.117188,33.0078125 Z M303.21875,26.8203125 C303.21875,24.3828003 302.644537,22.3828203 301.496094,20.8203125 C300.347651,19.2578047 298.726573,18.4765625 296.632812,18.4765625 C294.492177,18.4765625 292.855474,19.2538985 291.722656,20.8085938 C290.589838,22.363289 290.023438,24.3671752 290.023438,26.8203125 L290.023438,33.0078125 C290.023438,35.4765748 290.597651,37.4921797 291.746094,39.0546875 C292.894537,40.6171953 294.539052,41.3984375 296.679688,41.3984375 C298.757823,41.3984375 300.367182,40.6171953 301.507812,39.0546875 C302.648443,37.4921797 303.21875,35.4765748 303.21875,33.0078125 L303.21875,26.8203125 Z M341.664062,42.2890625 C340.507807,43.6640694 338.828136,44.8749948 336.625,45.921875 C334.421864,46.9687552 331.656267,47.4921875 328.328125,47.4921875 C324.109354,47.4921875 320.683607,46.1953255 318.050781,43.6015625 C315.417956,41.0077995 314.101562,37.6406457 314.101562,33.5 L314.101562,26.375 C314.101562,22.2656045 315.386706,18.906263 317.957031,16.296875 C320.527357,13.687487 323.835917,12.3828125 327.882812,12.3828125 C332.273459,12.3828125 335.562489,13.3984273 337.75,15.4296875 C339.937511,17.4609477 341.179686,20.2343574 341.476562,23.75 L341.429688,23.890625 L334,23.890625 C333.734374,22.093741 333.152348,20.742192 332.253906,19.8359375 C331.355464,18.929683 329.984384,18.4765625 328.140625,18.4765625 C326.296866,18.4765625 324.812506,19.2070239 323.6875,20.6679688 C322.562494,22.1289136 322,24.0156134 322,26.328125 L322,33.5 C322,35.8750119 322.554682,37.785149 323.664062,39.2304688 C324.773443,40.6757885 326.328115,41.3984375 328.328125,41.3984375 C329.781257,41.3984375 330.921871,41.2812512 331.75,41.046875 C332.578129,40.8124988 333.234373,40.500002 333.71875,40.109375 L333.71875,34.71875 L328.351562,34.71875 L328.351562,29.46875 L341.664062,29.46875 L341.664062,42.2890625 Z" id="BLOG" fill="#40301A" sketch:type="MSShapeGroup"></path>
            </g>
        </g>
    </g>
</svg>