<?xml version="1.0" encoding="UTF-8" standalone="no"?>
<svg width="129px" height="118px" viewBox="0 0 129 118" version="1.1" xmlns="http://www.w3.org/2000/svg" xmlns:xlink="http://www.w3.org/1999/xlink" xmlns:sketch="http://www.bohemiancoding.com/sketch/ns">
    <!-- Generator: Sketch 3.3.2 (12043) - http://www.bohemiancoding.com/sketch -->
    <title>clara-t</title>
    <desc>Created with Sketch.</desc>
    <defs></defs>
    <g id="Page-1" stroke="none" stroke-width="1" fill="none" fill-rule="evenodd" sketch:type="MSPage">
        <g id="Full-view-Copy" sketch:type="MSArtboardGroup" transform="translate(-645.000000, -25.000000)">
            <g id="clara-t" sketch:type="MSLayerGroup" transform="translate(645.000000, 25.000000)">
                <g id="Page-1" sketch:type="MSShapeGroup">
                    <g id="clara-t">
                        <g id="Group">
                            <path d="M57.3170455,98.2851852 L57.3170455,77.2765432 C57.3170455,74.4851852 58.4897727,71.6938272 60.3954545,69.7839506 C62.4477273,67.7271605 65.0863636,66.6987654 67.8715909,66.6987654 C70.6568182,66.6987654 73.2954545,67.8740741 75.3477273,69.7839506 C77.4,71.8407407 78.4261364,74.4851852 78.4261364,77.2765432 L78.4261364,98.4320988 L57.3170455,98.4320988 L57.3170455,98.2851852 L57.3170455,98.2851852 Z" id="Shape" fill="#0E8B32"></path>
                            <path d="M46.1761364,77.233299 C53.3358442,86.1226201 62.264578,88.9770671 70.8034091,85.1955975 L69.1733354,74.5410675 C62.4712305,77.5229431 55.5158072,75.2861407 49.9970848,68.3148148 L46.1761364,77.233299 L46.1761364,77.233299 Z" id="Shape" fill="#0E8B32"></path>
                            <rect id="Rectangle-path" fill="#165265" x="59.6625" y="99.6074074" width="7.18295455" height="18.0703704"></rect>
                            <rect id="Rectangle-path-Copy" fill="#165265" x="68.4579545" y="99.6074074" width="7.18295455" height="18.0703704"></rect>
                            <path d="M0,45.5432099 L46.9090909,54.8089423 L46.9090909,62.7304931 L0,70.5185185 L0,45.5432099 Z" id="Rectangle-3" fill="#40301A"></path>
                            <path d="M14.7381859,68.507466 C14.2909385,66.4878541 15.7843604,64.5339703 18.1072021,64.1376519 L31.9664451,61.7730165 C34.2743487,61.3792468 36.5092842,62.7037743 36.9550873,64.7168643 L38.0345414,69.5912994 C38.4817887,71.6109114 36.9883669,73.5647951 34.6655252,73.9611136 L20.8062822,76.3257489 C18.4983786,76.7195187 16.263443,75.3949911 15.81764,73.3819011 L14.7381859,68.507466 L14.7381859,68.507466 Z" id="Rectangle-4" stroke="#40301A" stroke-width="3"></path>
                            <g transform="translate(35.181818, 0.000000)">
                                <path d="M77.5465909,20.5679012 C83.2636364,20.5679012 88.8340909,19.5395062 93.8181818,17.6296296 C90.8863636,11.6061728 84.5829545,7.49259259 77.5465909,7.49259259 C70.5102273,7.49259259 64.2068182,11.6061728 61.275,17.6296296 C66.4056818,19.5395062 71.8295455,20.5679012 77.5465909,20.5679012 L77.5465909,20.5679012 L77.5465909,20.5679012 Z" id="Shape" fill="#FFB700"></path>
                                <g>
                                    <ellipse id="Oval" fill="#FBD0AE" cx="32.6897727" cy="32.0271605" rx="31.9568182" ry="32.0271605"></ellipse>
                                    <ellipse id="Oval-Copy" fill="#FBD0AE" cx="7.76931818" cy="71.6938272" rx="5.49715909" ry="5.50925926"></ellipse>
                                    <path d="M25.8,14.2506173 L23.6011364,22.3308642 C16.8579545,21.5962963 10.2613636,19.9802469 4.10454545,17.7765432 C9.38181818,7.19876543 20.2295455,0 32.6897727,0 C45.15,0 55.9977273,7.19876543 61.275,17.7765432 C52.3329545,21.008642 42.8045455,22.7716049 32.6897727,22.7716049 C30.3443182,22.7716049 28.1454545,22.6246914 25.8,22.4777778 L25.8,14.2506173 L25.8,14.2506173 Z" id="Shape" fill="#FFB700"></path>
                                    <g id="Oval" transform="translate(10.261364, 33.790123)" fill="#F5A10C">
                                        <ellipse cx="5.57045455" cy="5.72962963" rx="5.42386364" ry="5.43580247"></ellipse>
                                        <ellipse cx="39.2863636" cy="5.72962963" rx="5.42386364" ry="5.43580247"></ellipse>
                                    </g>
                                    <g id="Oval" transform="translate(21.988636, 32.320988)" fill="#40301A">
                                        <ellipse cx="2.34545455" cy="2.9382716" rx="1.6125" ry="1.61604938"></ellipse>
                                        <ellipse cx="19.2034091" cy="2.9382716" rx="1.6125" ry="1.61604938"></ellipse>
                                    </g>
                                    <path d="M28.1454545,38.9320988 C29.1715909,39.6666667 30.6375,40.254321 32.25,40.254321 L33.1295455,40.254321 C34.7420455,40.1074074 36.2079545,39.6666667 37.2340909,38.9320988" id="Shape" stroke="#40301A" stroke-width="0.4239"></path>
                                    <path d="M26.3863636,32.908642 C25.2136364,31.7333333 23.3079545,31.7333333 22.1352273,32.908642" id="Shape" stroke="#40301A" stroke-width="0.3706"></path>
                                    <path d="M43.2443182,32.908642 C42.0715909,31.7333333 40.1659091,31.7333333 38.9931818,32.908642" id="Shape" stroke="#40301A" stroke-width="0.3706"></path>
                                </g>
                            </g>
                        </g>
                    </g>
                </g>
            </g>
        </g>
    </g>
</svg>