<?xml version="1.0" encoding="UTF-8" standalone="no"?>
<svg width="130px" height="106px" viewBox="0 0 130 106" version="1.1" xmlns="http://www.w3.org/2000/svg" xmlns:xlink="http://www.w3.org/1999/xlink" xmlns:sketch="http://www.bohemiancoding.com/sketch/ns">
    <!-- Generator: Sketch 3.3.2 (12043) - http://www.bohemiancoding.com/sketch -->
    <title>clara_megaphon_2</title>
    <desc>Created with Sketch.</desc>
    <defs></defs>
    <g id="Page-1" stroke="none" stroke-width="1" fill="none" fill-rule="evenodd" sketch:type="MSPage">
        <g id="Group" sketch:type="MSLayerGroup" transform="translate(0.000000, -1.000000)">
            <g id="clara_megaphon_2" transform="translate(0.000000, 1.000000)" sketch:type="MSShapeGroup">
                <g id="Group">
                    <path d="M64.5548201,87.9033813 L64.5548201,68.8251799 C64.5548201,66.2822302 65.5648921,63.8430935 67.3633813,62.0446043 C69.1609353,60.2479856 71.6000719,59.2369784 74.1430216,59.2369784 C76.6869065,59.2369784 79.1251079,60.2479856 80.9235971,62.0446043 C82.7220863,63.8430935 83.731223,66.2822302 83.731223,68.8251799 L83.731223,87.9033813 L64.5548201,87.9033813 L64.5548201,87.9033813 Z" id="Shape" fill="#108B33"></path>
                    <rect id="Rectangle-path" fill="#155266" x="74.8369784" y="89.0715108" width="6.47755396" height="16.3192086"></rect>
                    <rect id="Rectangle-path" fill="#155266" x="66.9733813" y="89.0715108" width="6.47568345" height="16.3192086"></rect>
                    <path d="M81.4305036,71.1071942 C90.2761151,72.1817986 99.0244604,69.2357554 105.426259,63.0238129 L100.914604,58.373741 C95.9231655,63.2183453 89.1070504,65.5134532 82.2114388,64.6745324 L81.4305036,71.1071942 L81.4305036,71.1071942 Z" id="Shape" fill="#108B33"></path>
                    <path d="M68.766259,71.1296403 C60.7165468,74.9623022 51.487482,74.9435971 43.4452518,71.0866187 L46.2472662,65.2459712 C52.5171942,68.253741 59.7102158,68.2658993 65.9820144,65.2815108 L68.766259,71.1296403 L68.766259,71.1296403 Z" id="Shape" fill="#108B33"></path>
                    <g transform="translate(12.158273, 41.151079)" id="Shape" fill="#40301A">
                        <path d="M32.1595683,18.8023022 L29.2715108,18.8023022 C29.2771223,22.7733813 31.0569065,26.4882014 34.1544604,28.9815827 L35.9641727,26.7332374 C33.5502878,24.7888489 32.1633094,21.8970504 32.1595683,18.8023022 L32.1595683,18.8023022 Z"></path>
                        <path d="M38.9457554,10.6169784 C38.1433094,9.81546763 37.053741,9.36280576 35.9183453,9.36280576 L29.272446,9.36280576 L29.272446,17.9241007 L35.9183453,17.9241007 C37.053741,17.9241007 38.1433094,17.4733094 38.9457554,16.6708633 C39.7472662,15.867482 40.1999281,14.7788489 40.1999281,13.6434532 C40.1999281,12.5080576 39.7472662,11.4184892 38.9457554,10.6169784 L38.9457554,10.6169784 Z"></path>
                        <path d="M2.45316547,1.18028777 C2.45316547,0.703309353 2.06690647,0.31705036 1.58992806,0.31705036 C1.11294964,0.31705036 0.726690647,0.703309353 0.726690647,1.18028777 L0.726690647,26.1056835 C0.726690647,26.5826619 1.11294964,26.9698561 1.58992806,26.9698561 C2.06690647,26.9698561 2.45316547,26.5826619 2.45316547,26.1056835 L2.45316547,25.8428777 L28.3933094,17.9166187 L28.3933094,9.36935252 L2.45316547,1.44402878 L2.45316547,1.18028777 L2.45316547,1.18028777 Z"></path>
                    </g>
                    <path d="M8.8418705,54.7945324 C8.8418705,56.8483453 10.1671223,58.5888489 12.0076978,59.2173381 L12.0076978,50.3717266 C10.1671223,51.0002158 8.8418705,52.7416547 8.8418705,54.7945324 L8.8418705,54.7945324 Z" id="Shape" fill="#40301A"></path>
                    <path d="M8.56035971,47.4855396 C8.29381295,47.2208633 7.86453237,47.2208633 7.59892086,47.4855396 C3.56892086,51.5155396 3.56892086,58.0716547 7.59892086,62.1035252 C7.86359712,62.3682014 8.29381295,62.3682014 8.56035971,62.1035252 C8.82410072,61.8379137 8.82410072,61.4076978 8.56035971,61.1430216 C5.05971223,57.6423741 5.05971223,51.9466906 8.56035971,48.4460432 C8.82503597,48.1813669 8.82503597,47.7511511 8.56035971,47.4855396 L8.56035971,47.4855396 Z" id="Shape" fill="#40301A"></path>
                    <path d="M5.79856115,44.9594245 C6.06417266,44.6938129 6.06417266,44.2635971 5.79856115,43.9989209 C5.53388489,43.7342446 5.10460432,43.7342446 4.83899281,43.9989209 C-1.11388489,49.9517986 -1.11388489,59.6382014 4.83899281,65.5910791 C5.10460432,65.8557554 5.53388489,65.8557554 5.79856115,65.5910791 C6.06417266,65.3245324 6.06417266,64.8952518 5.79856115,64.6305755 C0.375035971,59.2070504 0.375035971,50.3829496 5.79856115,44.9594245 L5.79856115,44.9594245 Z" id="Shape" fill="#40301A"></path>
                    <g transform="translate(15.899281, 31.798561)">
                        <path d="M9.49935252,0.0664028777 C4.40035971,0.0664028777 0.265611511,4.19928058 0.265611511,9.29920863 L9.49935252,9.29920863 L9.49935252,0.0664028777 L9.49935252,0.0664028777 Z" id="Shape" fill="#F7A100"></path>
                        <path d="M9.45352518,0.0664028777 L9.45352518,7.44928058 L2.06877698,7.44928058 C2.06877698,11.5260432 5.37489209,14.8330935 9.45352518,14.8330935 C13.5302878,14.8330935 16.8364029,11.5269784 16.8364029,7.44928058 C16.8364029,3.37158273 13.531223,0.0664028777 9.45352518,0.0664028777 L9.45352518,0.0664028777 Z" id="Shape" fill="#155266"></path>
                        <path d="M10.377554,3.15086331 C10.3841007,2.33719424 11.0490647,1.68158273 11.8636691,1.6881295 C12.6782734,1.69561151 13.3320144,2.35964029 13.3264029,3.17517986" id="Shape" stroke="#D8D5C1" stroke-width="0.2081"></path>
                        <circle id="Oval" fill="#D8D5C1" cx="11.8702158" cy="3.25280576" r="0.522805755"></circle>
                    </g>
                    <g transform="translate(44.892086, 0.000000)">
                        <path d="M69.7969065,18.8668345 C74.9772662,18.8668345 79.946259,17.9484173 84.5420863,16.2668345 C81.8420144,10.8582734 76.2548201,7.14251799 69.7969065,7.14251799 C63.3389928,7.14251799 57.7536691,10.8582734 55.0526619,16.2668345 C59.651295,17.947482 64.6184173,18.8668345 69.7969065,18.8668345 L69.7969065,18.8668345 Z" id="Shape" fill="#FCBC00"></path>
                        <g>
                            <circle id="Oval" fill="#FFD1AD" cx="29.2518705" cy="29.1882734" r="28.8216547"></circle>
                            <path d="M23.0595683,13.1580576 L21.0263309,20.4333813 C14.9191367,19.7684173 9.02985612,18.3739568 3.45107914,16.3313669 C8.17784173,6.86755396 17.954964,0.365683453 29.2518705,0.365683453 C40.5506475,0.365683453 50.328705,6.86755396 55.0535971,16.3313669 C47.0076259,19.2736691 38.3172662,20.8804317 29.2518705,20.8804317 C27.1671942,20.8804317 25.1021583,20.792518 23.0595683,20.6251079 L23.0595683,13.1580576 L23.0595683,13.1580576 Z" id="Shape" fill="#FCBC00"></path>
                            <g transform="translate(8.417266, 30.863309)" fill="#F7A100" opacity="0.76">
                                <path d="M0.674316547,5.19719424 C0.674316547,7.9047482 2.86748201,10.0979137 5.57316547,10.0979137 C8.28165468,10.0979137 10.4748201,7.90381295 10.4748201,5.19719424 C10.4748201,2.49057554 8.28165468,0.297410072 5.57316547,0.297410072 C2.86748201,0.29647482 0.674316547,2.48964029 0.674316547,5.19719424 L0.674316547,5.19719424 Z" id="Shape"></path>
                                <circle id="Oval" cx="36.1091367" cy="5.19719424" r="4.90071942"></circle>
                            </g>
                            <g transform="translate(19.640288, 29.928058)" id="Oval" fill="#40301A">
                                <ellipse cx="2.00798561" cy="2.22215827" rx="1.41784173" ry="1.41784173"></ellipse>
                                <ellipse cx="17.2310791" cy="2.22122302" rx="1.41877698" ry="1.41877698"></ellipse>
                            </g>
                            <path d="M25.1835252,35.4357554 C26.0720144,36.1465468 27.441223,36.6151079 28.8721583,36.6843165 L29.6446763,36.6843165 C31.0756115,36.6151079 32.4504317,36.1465468 33.3361151,35.4357554" id="Shape" stroke="#40301A" stroke-width="0.4239"></path>
                            <path d="M23.6001439,29.9953957 C22.5208633,28.9170504 20.7738129,28.9189209 19.6954676,30.0000719" id="Shape" stroke="#40301A" stroke-width="0.3706"></path>
                            <path d="M38.8251079,29.9953957 C37.7448921,28.9170504 35.995036,28.9189209 34.9176259,30.0000719" id="Shape" stroke="#40301A" stroke-width="0.3706"></path>
                        </g>
                    </g>
                </g>
            </g>
        </g>
    </g>
</svg>