<?xml version="1.0" encoding="UTF-8" standalone="no"?>
<svg width="20px" height="20px" viewBox="0 0 20 20" version="1.1" xmlns="http://www.w3.org/2000/svg" xmlns:xlink="http://www.w3.org/1999/xlink" xmlns:sketch="http://www.bohemiancoding.com/sketch/ns">
    <!-- Generator: Sketch 3.3.2 (12043) - http://www.bohemiancoding.com/sketch -->
    <title>Shape</title>
    <desc>Created with Sketch.</desc>
    <defs></defs>
    <g id="Page-1" stroke="none" stroke-width="1" fill="none" fill-rule="evenodd" sketch:type="MSPage">
        <g id="Full-view-Copy" sketch:type="MSArtboardGroup" transform="translate(-974.000000, -92.000000)" fill="#40301A">
            <g id="ico_search" sketch:type="MSLayerGroup" transform="translate(955.000000, 89.000000)">
                <path d="M38.3548387,19.9270833 L33.3322581,14.858724 C34.0490323,13.6777344 34.483871,12.3007813 34.483871,10.8125 C34.483871,6.49869792 31.016129,3 26.7419355,3 C22.4677419,3 19,6.49869792 19,10.8125 C19,15.125651 22.4670968,18.625 26.7419355,18.625 C28.2167742,18.625 29.5806452,18.1861979 30.7516129,17.4654948 L35.7741935,22.53125 C36.1270968,22.8873698 36.7116129,22.8847656 37.0645161,22.53125 L38.3548387,21.2291667 C38.7077419,20.8730469 38.7077419,20.2832031 38.3548387,19.9270833 L38.3548387,19.9270833 Z M26.7419355,16.0208333 C23.8916129,16.0208333 21.5806452,13.6888021 21.5806452,10.8125 C21.5806452,7.93619792 23.8916129,5.60416667 26.7419355,5.60416667 C29.5922581,5.60416667 31.9032258,7.93619792 31.9032258,10.8125 C31.9032258,13.6888021 29.5922581,16.0208333 26.7419355,16.0208333 L26.7419355,16.0208333 Z" id="Shape" sketch:type="MSShapeGroup"></path>
            </g>
        </g>
    </g>
</svg>